<?xml version="1.0" encoding="UTF-8"?> <!-- Creator: CorelDRAW X7 --> <svg xmlns="http://www.w3.org/2000/svg" xmlns:xlink="http://www.w3.org/1999/xlink" xml:space="preserve" width="8.35535in" height="2.15435in" style="shape-rendering:geometricPrecision; text-rendering:geometricPrecision; image-rendering:optimizeQuality; fill-rule:evenodd; clip-rule:evenodd" viewBox="0 0 8355 2154"> <defs> <style type="text/css"> <![CDATA[ .fil0 {fill:black} ]]> </style> </defs> <g id="Layer_x0020_1"> <metadata id="CorelCorpID_0Corel-Layer"></metadata> <g id="_297379144"> <path class="fil0" d="M8355 1681c0,160 -122,241 -366,241l-627 0c-46,0 -68,-23 -68,-70 0,-57 22,-86 68,-86l628 0c115,0 173,-28 173,-85l0 -31c0,-51 -53,-77 -158,-77l-301 0c-276,0 -415,-77 -415,-231l0 -46c0,-102 70,-168 209,-196 28,-7 69,-11 123,-15 54,-3 122,-5 204,-5 46,0 70,30 70,88 0,46 -24,68 -70,68l-133 0c-70,0 -111,1 -125,3 -62,8 -93,27 -93,57l0 44c0,50 77,76 231,76l307 0c229,0 343,75 343,227l0 38z"></path> <path class="fil0" d="M7187 1852c0,47 -24,70 -70,70 -45,0 -72,-3 -80,-6 -25,-9 -37,-30 -37,-64l0 -535c0,-38 -32,-63 -95,-74 -11,-3 -28,-4 -51,-5 -24,-1 -53,-2 -87,-2l-320 0c-32,0 -59,1 -81,2 -22,1 -40,3 -52,5 -60,12 -90,37 -90,75l0 534c0,47 -23,70 -68,70 -46,0 -73,-3 -80,-6 -25,-9 -37,-30 -37,-64l0 -532c0,-160 142,-240 425,-240l303 0c279,0 420,80 420,238l0 534z"></path> <path class="fil0" d="M5728 1760l0 -408c0,-41 -35,-73 -103,-93 -56,-16 -107,-23 -155,-23l-293 0c-69,0 -118,3 -148,10 -61,16 -92,46 -92,93l0 313c0,72 92,108 275,108l516 0zm187 134c0,96 -61,167 -181,212 -80,32 -182,48 -305,48l-77 0c-46,0 -69,-29 -69,-87 0,-45 23,-68 69,-68l134 0c24,0 68,-9 132,-26 66,-19 102,-38 106,-58l-508 0c-120,0 -219,-15 -296,-45 -112,-43 -168,-114 -168,-215l0 -312c0,-177 174,-265 523,-265 9,0 21,0 34,0 14,0 30,1 49,1l13 1 69 0c110,0 210,17 300,49 116,46 175,118 175,215l0 550z"></path> <path class="fil0" d="M4611 1852c0,47 -22,70 -69,70 -45,0 -71,-3 -79,-6 -24,-9 -36,-30 -36,-64l0 -706c0,-46 23,-68 69,-68 45,0 71,2 79,6 24,9 37,29 37,62l0 706 -1 0z"></path> <path class="fil0" d="M4305 1681c0,160 -122,241 -366,241l-627 0c-45,0 -68,-23 -68,-70 0,-57 23,-86 68,-86l627 0c116,0 174,-28 174,-85l0 -31c0,-51 -52,-77 -158,-77l-301 0c-276,0 -415,-77 -415,-231l0 -46c0,-102 70,-168 209,-196 28,-7 69,-11 124,-15 53,-3 121,-5 203,-5 46,0 70,30 70,88 0,46 -24,68 -70,68l-133 0c-70,0 -111,1 -125,3 -62,8 -93,27 -93,57l0 44c0,50 77,76 231,76l307 0c229,0 343,75 343,227l0 38z"></path> <path class="fil0" d="M1951 1168c0,47 -27,70 -82,70 -8,0 -19,-1 -33,-2 -14,-1 -25,-1 -33,-1 -142,0 -213,35 -213,106l0 511c0,34 -13,56 -39,64 -10,4 -37,6 -80,6 -44,0 -66,-24 -66,-71l0 -510c0,-110 56,-185 169,-224 69,-24 172,-37 308,-37 46,0 69,30 69,88z"></path> <path class="fil0" d="M1136 1250l0 -145c0,-62 -84,-93 -254,-93l-687 0 0 368 688 0c169,0 253,-43 253,-130zm193 7c0,107 -53,184 -159,231 -83,35 -182,52 -299,52l-676 0 0 312c0,34 -14,55 -43,64 -7,3 -35,6 -84,6 -45,0 -68,-24 -68,-70l0 -931c0,-45 23,-68 69,-68l811 0c110,0 203,15 280,46 113,42 169,106 169,192l0 166z"></path> <path class="fil0" d="M4680 872c0,41 -17,73 -51,97 -30,20 -67,30 -110,30 -43,0 -79,-10 -109,-30 -34,-24 -52,-56 -52,-97 0,-40 18,-72 52,-96 30,-21 66,-31 109,-31 43,0 80,10 110,31 34,24 51,56 51,96z"></path> <path class="fil0" d="M2953 1660l0 -324c0,-66 -76,-100 -228,-100l-301 0c-56,0 -106,7 -151,21 -63,21 -94,52 -94,93l0 310c0,40 32,69 96,88 43,12 93,18 150,18l301 0c49,0 95,-7 138,-21 59,-19 89,-47 89,-85zm188 0c0,96 -47,166 -142,211 -67,34 -157,51 -268,51l-308 0c-102,0 -194,-18 -277,-52 -101,-46 -152,-116 -152,-210l0 -310c0,-94 50,-165 151,-214 75,-37 167,-56 277,-56l309 0c273,0 410,90 410,269l0 311z"></path> <path class="fil0" d="M4509 700c78,5 142,34 195,88 1172,-1132 -115,-1069 -2525,349l338 -28c1351,-771 2427,-928 1992,-409z"></path> </g> </g> </svg> 